<?xml version="1.0" encoding="UTF-8"?>
<svg version="1.1" viewBox="0 0 2048 2048" width="512" height="512" xmlns="http://www.w3.org/2000/svg">
<path transform="translate(1008)" d="m0 0h29l30 5 20 6 16 6 19 10 15 10 10 8 10 9 13 13 10 13 11 17 12 25 8 25 3 10 21 11 21 14 13 10 14 12 21 21 9 11 12 16 12 19 14 27 9 23 7 23 5 23 3 24 1 20 1 124 10 9 10 14 7 15 3 12 1 10v33l-2 20-5 19-6 15-8 15-9 12-11 13-13 11-14 9-42 21-5 1-3 9-11 24-10 19-11 17-10 14-11 13-7 8-21 21-11 9-13 10-1 93 11 3 282 94 20 9 16 10 10 8 10 9 9 9 12 16 9 15 8 19 5 16 4 22 50 350 1 6v8l-15 3-15 2 6 42 2 18 2 3 22-3h8l7 47 13 91 2 17 1 15v37l-2 24-5 22-6 18-11 23-7 11-10 14-14 15-8 8-14 11-16 10-15 8-21 8-22 6-17 3h-37l-28-6-22-7-25-12-15-10-10-8-10-9-13-13-7-8-9-10-6-8-2-1v63l-2 8-5 9-8 7-10 5h-527l-12-7-7-7-4-9-1-9-63 1-10 6-16 8-14 6-24 7-21 4h-37l-28-6-27-9-20-10-9-6-6-1h-204l-2 10-9-2-44-15-8-4 3-10 15-44 15-43 15-44 15-43 21-61 15-43 11-31 6 1 24 8 4-10 16-47 2-7-11-3-17-6-1-3 10-29 15-44 15-43 21-61 9-25 10-29 17-50 13-37 23-67 9-24 6-12 9-21 9-16 10-14 14-15 10-9 14-10 16-9 19-8 270-90 16-5 1-1v-91l-9-8-10-8-13-12-19-19-11-14-10-13-12-19-14-27-10-23-48-24-14-10-10-9-5-4-9-11-8-11-11-21-6-18-3-15-1-8v-44l3-15 6-15 8-12 12-13 2-2 1-134 2-21 3-18 6-25 8-24 11-25 11-20 14-21 7-9 4 1 14 11 7 5 4-2 7-9h2l2-4 15-15-3-5-11-12-5-6 2-4 15-12 17-12 21-12 9-5 3-9 5-17 10-24 11-19 12-16 9-10 7-8 8-7 13-10 15-10 16-8 14-6 19-6 25-5z" fill="#010101"/>
<path transform="translate(928,943)" d="m0 0 9 2 25 7 21 4 17 2 15 1h17l25-2 24-4 20-5 15-5h4v69l1 18 4 11 6 7 14 7 309 103 16 8 10 7 10 9 8 9 9 15 6 16 4 21 19 133v9l-41 14-43 14-44 15-4-2-20-40-10-21-7-11-10-7-14-8-27-16-24-14-29-17-22-13-19-11-39-23-20-12-58-34-15-9-3 1-14 24-9 15-7 11v3l14 8 11 7 9 5 24 14 27 16 14 8 27 16 24 14 15 9 17 10 12 6v2l5 1v2l5 2 11 6 6 3v2l5 2 6 3 11 7 12 6v2l5 2 4 4 12 23 24 48 4 9 4 11 4 14 2 6 3 14 2 25v19l-2 20-5 23-6 18-8 19-5 10-5-1-20-14-3-1v-2l-4-1-8-6-5-3-7-5-5-3-16-11-5-5-10-23-5-12-7-15-9-21-4-8-3-8-5-12-11-24-15-35-13-29-15-35-10-26-8-16-8-13-10-13-11-11-15-11-17-8-11-4-16-3h-21l-12 3-11 6-4-1-13-6-10-2h-20l-19 4-15 6-14 8-10 8-10 9-11 14-9 15-9 19-5 15-6 13-3 7-4 9-5 12-8 19-7 15-4 10-5 10-4 10-17 38-5 13-4 8-11 25-5 13-5 1-14-8-12-7-16-8-31-15-13-6-36-15-15-6-26-9-21-7-26-8-17-4-16-4-26-6-16-4 1-10 29-202 5-33 4-15 8-17 9-12 9-10 12-9 16-8 18-7 72-24 17-5 9-3 7-3 17-5 24-8 10-4 28-9 7 1 9 6 14 8 15 9 9 5 6 3v2l5 2 16 9 15 9h4l6-10 5-9h2l1-4 15-26 1-4-39-23-6-4v-2l32-11 9-6 5-8 3-10z" fill="#FDB649"/>
<path transform="translate(1023,408)" d="m0 0 5 3 16 16 11 9 17 13 15 10 19 11 16 8 15 7 24 9 25 7 31 6 30 4 1 1v42l-1 132-3 21-5 21-6 18-11 25-13 22-12 16-13 15-12 12-11 9-13 10-13 8-22 12-20 8-24 7-27 5-13 1h-11l-20-2-28-6-21-7-20-9-17-9-12-8-13-10-14-12-14-14-9-11-11-15-8-13-12-23-9-24-6-24-3-21-1-13v-164l2-1 21-2 30-5 27-7 28-10 20-9 19-10 20-12 3-1v-2l9-6 12-9 13-11 13-12z" fill="#FDDFC1"/>
<path transform="translate(1057,1344)" d="m0 0 12 1 12 6 10 8 9 12 8 16 10 27 13 29 17 39 18 41 20 46 18 41 14 32 5 9 5 5 11 8 264 176 14 9h2l7-11 8-12 17-25 1-4-43-29-41-27-51-34-14-10 1-5 10-19 10-25 7-24 5-25 1-11 5-3 20-7 73-28 21-8 4 1 8 60 13-1 19-2 3 12 6 48 1 4-32 5 21 150 1 15v31l-2 21-5 18-7 15-7 12-8 10-9 10-9 8-17 11-19 8-20 5-9 1h-21l-18-3-16-5-16-8-11-7-11-9-12-12-9-11-13-14-9-11-12-13-9-11-11-12-7-8-12-14-9-10-7-8-12-14-9-10-7-8-12-14-9-10-7-8-12-14-9-10-5-5-10-5-5-1-51-1-18-4-16-8-9-7-13-13-10-15-7-15-3-7-3-11-2-19v-283z" fill="#FDDFC1"/>
<path transform="translate(987,1344)" d="m0 0h4l1 2v274l-1 19-4 18-6 16-8 15-8 10-14 14-13 8-12 5-15 3-50 1-9 2-8 5-3 1-2 4-13 14-9 11-12 13-9 11-13 14-9 11-10 11-7 8-26 30-10 11-9 11-13 14-9 11-10 11-7 8-13 15-10 10-12 9-16 9-16 6-17 4-9 1h-21l-18-3-21-7-15-8-12-9-10-9-11-12-11-18-8-19-4-18-1-8v-49l5-38 32-223 4-23 11 1 31 6 31 8 36 12 10 4 1 2 3 27 6 29 6 19 8 21 9 17 4 8v3l-18 12-43 29-44 29-19 13-18 12-7 4 1 5 11 16 12 18 9 14 5-2 39-26 43-29 44-29 43-29 44-29 43-29 23-15 9-7 5-6 10-22 13-30 18-41 14-32 18-41 14-32 17-39 10-26 9-17 9-11 11-8 9-4z" fill="#FDDFC1"/>
<path transform="translate(928,943)" d="m0 0 9 2 25 7 21 4 17 2 15 1h17l25-2 24-4 20-5 15-5h4v69l1 18 4 11 6 7 14 7 309 103 16 8 10 7 10 9 8 9 9 15 6 16 4 21 19 133v9l-41 14-43 14-44 15-4-2-20-40-10-21-7-11-10-7-14-8-27-16-24-14-29-17-22-13-19-11-39-23-20-12-58-34-15-9-3 1-14 24h-4l-5-3-7-3-22-13-5-4-6-2-3-2-5-1 3-8 5-8 8-13-1-3-26-15-22-13-5-1-14 25-3 1v-2h-5v-2l-4-1-16-9-22-13-5-4 1-4 12-21 1-4-39-23-6-4v-2l32-11 9-6 5-8 3-10z" fill="#FDDFC1"/>
<path transform="translate(943,192)" d="m0 0h154l25 2 26 6 24 8 21 10 20 12 12 9 11 9 14 13 7 8 10 12 11 16 8 14 9 19 7 19 6 24 3 20 1 14v61l-2 2-4-9-8-7-5-3-10-2-38-3-33-5-21-5-30-10-24-11-23-13-14-10-11-9-13-12-9-10-12-18-8-11-7-6-7-3h-20l-6 3-10 10-6 8-7 3-5 6-13 9-17 10-27 12-36 12-23 6-33 6-65 9-13 3-8 6-3 5-3 6h-1v-46l4-24 7-25 8-20 10-20 8-12 11-15-5-2-17-14-1-3-2-1 9-10 1-2h2l2-4 15-15 4 2 15 16 4 4 6-4 12-9 5-3 10-7 14-8 21-9 21-7 23-5z" fill="#404850"/>
<path transform="translate(1070,1347)" d="m0 0 6 1 9 6 6 5 9 12 8 16 10 27 13 29 17 39 18 41 20 46 18 41 14 32 5 9 5 5 11 8 264 176 14 9h2l7-11 8-12 17-25 1-4-43-29-41-27-51-34-14-10 1-5 10-19 10-25 7-24 5-25 1-11 5-3 20-7 73-28 21-8 4 1 8 60 13-1 19-2 3 12 6 48 1 4-32 5 21 150 1 15v31l-2 21-5 18-7 15-7 12h-2l-1-3v-11l-4-3-6-3-14-9-11-7-18-12-46-30-22-14-20-13-25-16-37-24-11-7-37-24-22-14-16-10-14-9-19-12-14-9-22-14-10-7-12-9-7-7-8-12-10-23-22-61-10-27-13-34-7-20-13-36-10-29-12-33-4-10-8-22-3-9z" fill="#FEF0DD"/>
<path transform="translate(964,1353)" d="m0 0 3 1-4 9-1 5h-2l-3 13-4 12-6 21-12 37-8 24-7 22-10 31-12 35-10 29-12 36-7 20-8 13-5 6-11 9-24 16-17 11-7 4-17 11-22 14-16 10-20 13-11 7-19 12-16 10-23 15-13 8-17 11-24 15-17 11-39 26-16 11-11 7-6 4h-2v2l-13 8-25 15-2 4h-5l-7-14-5-16-3-18v-49l5-38 32-223 4-23 11 1 31 6 31 8 36 12 10 4 1 2 3 27 6 29 6 19 8 21 9 17 4 8v3l-18 12-43 29-44 29-19 13-18 12-7 4 1 5 11 16 12 18 9 14 5-2 39-26 43-29 44-29 43-29 44-29 43-29 23-15 9-7 5-6 10-22 13-30 18-41 14-32 18-41 14-32 17-39 10-26 9-17 9-11z" fill="#FEEEDC"/>
<path transform="translate(424,1536)" d="m0 0h2l-1 9-5 26-3 18-2 19-4 25-7 48-3 20-2 16-5 35-3 25-3 17-1 12-2 10v63l2 15 5 21 4 12 4 10 12 22 8 12 8 10 11 12 8 8 13 10 4 3-1 2h-206l-2 10-9-2-44-15-8-4 3-10 15-44 15-43 15-44 15-43 21-61 15-43 11-31 6 1 24 8 4-10 16-47 2-6 10 3 9 3 7 2h5l6-17 4-10 6-18 4-10 8-25 3-7 4-13z" fill="#F1720E"/>
<path transform="translate(959,1779)" d="m0 0h5v2l4 1 10 9 11 9 15 13 13 12 12 11 10 9 25 25 7 8 11 12 9 11 11 13 14 19 10 15 15 26 3 6v4h-344l-1-37-5-17-4-15-5-15 1-4 12-13 9-11 13-14 9-11 10-11 7-8 9-10 3-4h2l2-5 12-13 3-4 38-1 18-3 15-4z" fill="#FB8C82"/>
<path transform="translate(932,193)" d="m0 0h92l1 42v19l-1 37-3 11-8 15-3 3-2 5-11 11-6 8-7 3-5 6-13 9-17 10-27 12-36 12-23 6-33 6-65 9-13 3-8 6-3 5-3 6h-1v-46l4-24 7-25 8-20 10-20 8-12 11-15-5-2-17-14-1-3-2-1 9-10 1-2h2l2-4 15-15 4 2 15 16 4 4 6-4 12-9 5-3 10-7 14-8 21-9 21-7 23-5z" fill="#555964"/>
<path transform="translate(1130,1300)" d="m0 0h7l19 8 14 9 13 9 11 7 18 11 22 13 70 42 8 6 6 7 5 8 6 3 1 5 3-4 24 48 4 9 4 11 4 14 2 6 3 14 2 25v19l-2 20-5 23-6 18-8 19-5 10-5-1-20-14-3-1v-2l-4-1-8-6-5-3-7-5-5-3-16-11-5-5-10-23-5-12-7-15-9-21-4-8-3-8-5-12-11-24-15-35-13-29-15-35-10-26-8-16-8-13-1-2h2v-6l-4-2v-2l-3-1-7-9-2-1v-3l-5-1z" fill="#FDB64A"/>
<path transform="translate(512,1544)" d="m0 0 10 1 40 10 36 12 10 4 1 2 3 27 6 29 6 19 8 21 9 17 4 8v3l-18 12-43 29-44 29-19 13-18 12-7 4 1 5 11 16 7 11h-8l-14 7-9 6-13 8-4-1-1-1v-13l4-21 6-37 4-21 8-48 11-65 9-57 7-37 2-1-5-2z" fill="#FDDFC1"/>
<path transform="translate(1530,1552)" d="m0 0 2 1v3l3 2 7 45 21 120 11 65 6 35 5 31v5l-4 2-13-10-12-11-6-4-4-4-3-2v-2h-2l1-8 7-6 4-8 2-5v-2h-2l-5-5-44-29-87-58-14-10 1-5 10-19 10-25 7-24 5-25 1-11 5-3 20-7 34-13z" fill="#FCDFC1"/>
<path transform="translate(304,1686)" d="m0 0 6 1 30 10 10 4 12 3 2 2v6l-3 6-3 11-3 7-7 20-9 28-4 10-5 16-4 10-5 14-3 9-7 22-3 7-3 9-6 19-4 10-5 16-4 10-10 29-6 19-4 10-8 22-3 10-9-2-44-15-8-4 3-10 15-44 15-43 15-44 15-43 21-61 15-43z" fill="#010101"/>
<path transform="translate(1023,408)" d="m0 0 5 3 16 16 11 9 17 13 15 10 19 11 16 8 15 7 24 9 25 7 31 6 30 4 1 1v42l-1 132-3 21-5 21-6 18-11 25-13 22-12 16-13 15-12 12-11 9-13 10-5 2v-6l3-10 5-8h2l2-4 7-8h2l2-5 4-5 9-15 9-17 5-11 7-17 4-10 7-27 3-15 1-13 1-18 1-33-1-37-1-43v-13l-1-3-5-2-15-3-24-7-22-8-21-9-27-15-10-7-2-1v-2l-4-2-6-4-10-9-8-7-13-13v-2l-3-1-7-8-5-6-4-10-1-5-4 1-8 10-10 16-11 12-11 11-11 9-7 6h-2v2l-15 10-15 9-16 8-16 7-19 7-26 7-22 5-19 3-1 1h-12l-1 42h-1v-73l2-1 21-2 30-5 27-7 28-10 20-9 19-10 20-12 3-1v-2l9-6 12-9 13-11 13-12z" fill="#FEDAAC"/>
<path transform="translate(1023,1725)" d="m0 0 4 2 6 9 9 10 5 6 11 9 11 8 19 10 23 8 16 3 10 1 32 1 5 4 5 7 5 5 7 8 4 5 5 5v2h2l5 7 5 5 7 8 4 5 5 5 7 9 5 5 14 16v2h2v2h2v2h2v2h2l-1 6-12 44-2 37-1 1h-34l-11-29-10-21-13-22-13-19-16-21-9-11-12-14-28-30-16-16-2-1v-2h-2v-2l-4-2-14-14-10-9-8-7-10-9-7-5-5-5-7-6 1-4 4-7h2z" fill="#FDB649"/>
<path transform="translate(793,1091)" d="m0 0 7 1 9 6 10 6 2 4-1 2-18 5-33 11-27 8-66 20-17 5-17 6-14 6-13 8-10 8-10 9-13 17-8 15-6 15-6 25-8 47-6 35-20 122v8h-9l-21-5 1-10 29-202 5-33 4-15 8-17 9-12 9-10 12-9 16-8 18-7 72-24 17-5 9-3 7-3 17-5 24-8 10-4z" fill="#FEDA73"/>
<path transform="translate(1151,1059)" d="m0 0 12 2 291 97 16 8 10 7 10 9 8 9 9 15 6 16 4 21 19 133v9l-26 9-4-1-4 1 3-5-2-17-8-49-8-46-7-33-8-20-9-15-4-5v-2h-2l-6-7v-2h-2v-2l-4-2-12-10-14-8-15-7-19-7-36-11-24-7-32-9-26-8-22-6-25-8-27-9-14-7-9-9-5-10-8-7-6-5z" fill="#FEEEDC"/>
<path transform="translate(701,1174)" d="m0 0 12 1 10 3 10 7 8 9 4 10 1 3v24l-5 15-7 14h-2l-1 4h-2l-2 5h-2l-2 4-7 8-12 9-17 9-15 4h-19l-12-4-10-7-6-7-5-10-2-7v-15l4-17 8-16 7-10 9-10 10-9 9-6 10-3v-2l12-4z" fill="#FDFCFB"/>
<path transform="translate(828,539)" d="m0 0 3 1 1 108 1 27 2 24 5 28 5 18 5 15 4 10 8 19 11 20 8 12 4 5v3h2l6 8 3 3v2h2v2h2v2l5 2 11 10 2 1v2l4 2 11 7 1 3-5-1-17-9-12-8-13-10-14-12-14-14-9-11-11-15-8-13-12-23-9-24-6-24-3-21-1-13v-91l1-43h16z" fill="#FEEEDC"/>
<path transform="translate(987,344)" d="m0 0h3l-2 6-9 12-9 10-11 11-14 11-15 10-18 10-16 8-26 10-21 6-25 5-33 4-28 2-10 3-9 6-5 9-2 4-1-9v-59h1l1 33 4-9 8-7 9-3 43-6 40-6 24-5 27-7 29-10 21-9 20-11 13-9 5-5z" fill="#2F353C"/>
<path transform="translate(1058,346)" d="m0 0 4 2v2l7 2 12 10 14 8 14 7 14 5 9 4 21 7 26 7 40 8 29 4 16 2 26 4 14 5 5 4 1 7 1-27h1v61l-2 2-4-9-8-7-5-3-10-2-38-3-33-5-21-5-30-10-24-11-23-13-14-10-11-9-13-12-9-10-9-13z" fill="#2F353C"/>
<path transform="translate(1162,1062)" d="m0 0 7 1 285 95 16 8 10 7 10 9 8 9 9 15 6 16 4 21 19 133v9l-26 9-4-1-4 1 3-5 2-12 5-1 6-2 1-2v-21l-1-9-1-2-1-16-6-40-6-31-5-22-5-14-3-1-7-10-1-4-6-2-5-3-1-4-7-2-3-3 1-2h3l-4-8-11-7-16-7-20-7-14-7-17-6-38-13-47-15-20-7-17-5-15-5-20-6-17-6-19-7-13-6-10-5-5-5z" fill="#FEF5DF"/>
<path transform="translate(1007,65)" d="m0 0h33l16 3 19 7 18 10 11 8 12 11 9 10 7 10 4 6v2l-9-1-9-4-18-10-19-9-21-7-16-3-10-1h-23l-24 4-24 8-19 9-15 10-11 3h-6l2-4 12-17 17-17 16-11 15-8 18-6z" fill="#2F353C"/>
<path transform="translate(1211,1645)" d="m0 0 8 4 6 5 14 10 264 176 14 9h2l7-11 8-12 17-25 4-2 1 4-5 8-2 4h-2l-2 4-2 1-1 6-1 2h2l3 6h-2v5l-6 5h-2v2l-12 8-4 4h-9l-8-3-10-7-6-4-8-4-14-10-6-4-5-1-12-9-16-11-30-20-10-7-13-8-10-7-9-5 2-2h-3l-3-1-1-3-11-7-7-5-1-1-11-6-1-3-10-7-4-3-8-5v-2l-5-1-6-5-3-1-2-2h-3l-6-6-6-4h-3l-1-2-8-7h-3l-1-4-6-2-2-2-8-6-9-7-11-11-2-4z" fill="#FEF5DF"/>
<path transform="translate(1539,1562)" d="m0 0h3l2 2h2l3 11h2l1 2 2 15 3 11 8 5v2l7-1 1-1h5l1 1 8 1v3l3 9 1 5h2l2 11h-2l-2 2-1 3 2 6v3l1 2-8 3-7 3-5 2-1 6-2 5 1 24 1 13 1 1 2 22 1 3v19l-2 3v-3h-2v10l1 2h2v-7l3 4 1 3v13l-4 1v11l-2-4-7-41-10-60-4-22-15-87-1-14z" fill="#FFEFDD"/>
<path transform="translate(978,1125)" d="m0 0 5 1 26 15 23 14 1 3-15 25-4 7-7 11-3 6-2 3-5-1-18-10-28-17-4-2 1-5 8-13 12-20z" fill="#030303"/>
<path transform="translate(846,1615)" d="m0 0 2 1-1 5-6 22-3 6-4 7h-2l-1 3-14 9-8 3-10 7-13 10h-2v2l-15 11-13 9-16 11-24 16-8 6-2 2h-2l-4 4-1-1-2 3h-3l-2 4h-2l-5 6-3-1-2 3v-2h-2l-1 5-15 10-7 4-16 10-14 9-27 18h-2v2l-15 9-15 10-11 8-7 4-3-1-9 4h-2v2h-2v-2h-8l-8-2-10-11-3 1-3-2 1-5 3-4v-2l9-1 5 5 8 12 3 5 5-2 39-26 43-29 44-29 43-29 44-29 43-29 23-15 9-7 5-6 10-22 1-3 7-3z" fill="#FEF4DD"/>
<path transform="translate(1544,1449)" d="m0 0h2l1 5 3 22-8 4-23 9-12 4-9 4-14 5-12 5-12 4-11 5-8 3h-5l-5-25-2-6 3-2 14-4 8-3 18-6 10-4 13-4 27-9 19-6z" fill="#F98D81"/>
<path transform="translate(814,279)" d="m0 0h12l8 4 7 8 1 3v14l-4 10-6 9-8 8-14 7-3 1h-13l-10-5-5-8-1-3v-13l4-10 8-11 8-7 12-6z" fill="#FDFBF8"/>
<path transform="translate(928,943)" d="m0 0 9 2 25 7 21 4 17 2 15 1h17l25-2 24-4 20-5 15-5h4v69l1 18 4 11 6 7 14 7 12 4v1h-5l5 5 3 7-2 2-1-4-6-2-20-11-8-7-6-8-5-10-3-24v-34l1-6v-10l-3-3h-8l-16 4-24 5-10 2-17 2h-21l-23-3-30-6-5-2-9-3-6 1-2 4v43l-2-1-1-8-1-4v-17l-1-2v10l-1 6h-1z" fill="#FEE7BE"/>
<path transform="translate(731,576)" d="m0 0 5 1 1 107-4-2-11-10-9-13-5-10-3-11-1-8v-34l3-7 7-7 7-4z" fill="#FDE0C2"/>
<path transform="translate(1313,576)" d="m0 0 9 1 10 4 9 8 2 3 1 5v26l-2 18-6 16-7 11-9 10-7 5-3-1 1-11 1-94z" fill="#FEE5BB"/>
<path transform="translate(1077,1259)" d="m0 0 9 2 70 41 27 16 24 14 15 9 17 10 12 6v2l5 1v2l5 2 11 6 6 3v2l5 2 6 3 11 7 12 6v2l5 2 4 4 11 21-1 7-3-3v-3l-6-3-7-11-8-7-70-42-22-13-26-16-12-8-10-7-11-7-19-8h-7l-1 3 5 1v3l4 2 6 8 6 5v6l-4-2-8-10-10-10-15-11-17-8-3-2 9-2-1-5h-2l-3-3-10-8v-2l-5-2z" fill="#FBBB43"/>
<path transform="translate(1072,1348)" d="m0 0 6 1 9 7 5 5 6 7 7 12 14 36 12 27 17 39 18 41 20 46 16 37v4h-5l-3-8-6-10-4-9-2-4v-3h-2l-9-18-11-23-10-22-9-20-13-30-14-34-1-3-2-2-1-3-3-3-1-7-3-3-1-5h-2l-7-21-7-11-1-3h-2l-7-10-4-6z" fill="#FEF4DC"/>
<path transform="translate(1056,1346)" d="m0 0h1l1 104 1 156 1 18 7 20 8 18 7 11 5 6v2h2l2 5h2l3 4v2h2l6 7 15 11v2l5 1 15 6 25 5 12 1v2h30l7 2v6l-2 2-3-1-1 2-9-6-10-3-51-1-18-4-16-8-9-7-13-13-10-15-7-15-3-7-3-11-2-19z" fill="#FED299"/>
<path transform="translate(991,1346)" d="m0 0h1v274l-1 19-4 18-6 16-8 15-8 10-14 14-13 8-12 5-15 3h-49v-1l20-1 15-2 15-5 9-4 9-5 11-9 11-11 9-11 8-12 6-11 7-10 7-21 1-9v-214z" fill="#FED7A3"/>
<path transform="translate(676,1600)" d="m0 0 5 1 17 8 23 11 11 6 9 5-1 3-5 3-28 19-6 4h-3l-8-15-5-14-4-10-4-17z" fill="#F68C80"/>
<path transform="translate(987,1344)" d="m0 0h4v58l-1 206-4 1-1-6-2-43-1-51v-71l1-55v-36z" fill="#FEEAC4"/>
<path transform="translate(734,1956)" d="m0 0h2v58l-1 2h-44l-15-1 4-4 13-10 20-20 9-11 9-10z" fill="#EA7213"/>
<path transform="translate(946,1285)" d="m0 0h8l-3 3-16 8-9 6-13 11-12 14-11 18-9 19-5 15-6 13-3 7-4 9-5 12-8 19-7 15-4 10-5 10-4 10-17 38-5 13-4 8-11 25-5 13-5 1-5-3-1-4 5-2 9-16 5-9 5-13 10-19 6-17 5-10 5-12 3-8 7-14 3-7 2-7 7-15 5-11 4-10 8-16 5-15 4-9 6-15 7-14 10-15 4-5 8-7 4-5 16-12 12-6z" fill="#FCB941"/>
<path transform="translate(1134,1792)" d="m0 0 36 1 5 5 4 5 5 5 7 8 4 5 5 5v2h2l5 7 5 5 7 8 4 5 5 5 7 9 5 5 14 16v2h2v2h2v2h2v2h2l-1 6-12 44-2 37-1 1h-34v-1l22-1v-3l5-4 3-12v-13l3-18 4-14 4-10v-7l-2-5-5-6-16-16-6-9-6-8-8-7-9-10-8-12v-2h-2v-2h-2v-2l-3-1-5-6v-2h-2l-6-8-8-5-7-3-19-2-5-1z" fill="#FABA42"/>
<path transform="translate(804,696)" d="m0 0 4 2 5 21 3 11 4 12v4h2l3 10 3 7v2h2l2 6 5 2 4 8 3 2 4 7 3 3v2h2l4 7 6 8 5 5 2 4 3 1 7 8 2 4 4 2 8 7 12 11 8 6 3 3 2 1v2l7 1 8 6v2l-5-1-17-9-12-8-13-10-14-12-14-14-9-11-11-15-8-13-12-23-9-24-6-24z" fill="#FEF3DA"/>
<path transform="translate(731,576)" d="m0 0 5 1 1 107-4-2-11-10-9-13-5-10v-7l2-1 1-8h1l2 13 4 9 4 5h5l1-7v-55l-2-11h-7l-5 4-3 9v31l-2-2-1-22v-9l-3-4 2-5 7-7 7-4z" fill="#FEE5B9"/>
<path transform="translate(1138,1216)" d="m0 0 6 1 9 5 10 6 14 7 6 5 13 6 8 6 18 9v2l5 2 5 3 5 1 3 3 9 6 8 3 13 8 14 7 16 10 14 8 13 8 28 16 10 6 3 3 1 5-3-1h-3l-15-9-51-30-73-43-24-14-17-10-45-27z" fill="#FEE3B7"/>
<path transform="translate(801,541)" d="m0 0 1 2h5l3 3-2 18 1 45v31l-1 17v32l-1 3-4 1v-5h-2l-1-13v-91z" fill="#FEF3D9"/>
<path transform="translate(959,1359)" d="m0 0 1 4-5 10-5 17-6 25-6 19-3 9-12 23-4 10-8 13-2-1v-8l2-1 3-10 4-9 2-1-2-4 3-5 1-8h2v-2h2l-1-4 1-4h2l2-9 1-5 2-7 1-8 8-20 8-15 6-7z" fill="#FEF6E0"/>
<path transform="translate(1433,1707)" d="m0 0 4 2 16 12 28 18 60 40 11 9 4 6 4 2v2l-8-1-43-29-41-27-31-21-1-5-4-2v-5z" fill="#FEE7BF"/>
<path transform="translate(1323,588)" d="m0 0 6 1 1 3h2l3 6 1 8v21l-2 13-3 12-5 7-5 2-2-1-1-9 1-58 2-4z" fill="#FDE0C2"/>
<path transform="translate(1023,1725)" d="m0 0 4 2 6 9 9 10 5 6 11 9 11 8 20 11v3l-9 2-8-2-5-1-7-4-11-9-5-5-10-9-7-5-5-5-7-6 1-4 4-7h2z" fill="#FCBB43"/>
<path transform="translate(563,1557)" d="m0 0 9 1 35 12 2 3 3 27 6 29 6 19v3l-6-2-3-5 1-7h-2l-4-11-3-12-2-4-4-18-4-13-8-7-13-3-10-5-7-2-2-3z" fill="#FEE7BD"/>
<path transform="translate(611,1711)" d="m0 0 4 1 3 1-1 3-44 29-43 29-27 18-5 3-5-1 1-4 8-6 10-6 10-7 11-7 12-8 5-4 7-4 11-7 9-6 10-7 18-12z" fill="#FEE7BF"/>
<path transform="translate(1544,1449)" d="m0 0h2l1 5 3 22-8 4-18 7-4-1 3-3-3-7-1-5v-10-4l22-7z" fill="#FED8A9"/>
<path transform="translate(1504,1385)" d="m0 0h2v6l-2 2 3-1-1 3-35 12-43 14-20 7-4-2-10-20v-3l5 1v3l4 2 4 6 3 8 5-2v-2l7-1 12-6 19-7 28-10 7-3 15-6z" fill="#FEE7BF"/>
<path transform="translate(1422,1653)" d="m0 0 1 4 1 7 1 17 5 26 1 6 5 2 1 4-5-2-15-10-14-10 1-5 10-19z" fill="#FDD7A7"/>
<path transform="translate(625,1661)" d="m0 0 4 1 10 21 6 11v3l-18 12-7 5-4-2 4-17 2-7 1-11v-13z" fill="#FED8A7"/>
<path transform="translate(1124,864)" d="m0 0 4 1v2l-15 8-20 8-24 7-27 5h-22v-2l-3 1-18-1-3-1v-2l-4-1h8l5 2h18l16-3 10-2 16-3 23-6 12-4 7-3 10-4z" fill="#FEE8BF"/>
<path transform="translate(858,216)" d="m0 0h5l3 6v9l-6 9-8 6-3 1h-8l-5-3-3-9v-3l7-6z" fill="#FDF8F1"/>
<path transform="translate(697,1892)" d="m0 0 3 1-3 4h3l-2 5-12 13-9 11-12 13-7 8-8 8-12 9-16 9-7 1 4-6 11-7 20-15 11-13 7-7 7-8 10-11 7-9z" fill="#FEE7BF"/>
<path transform="translate(838,1737)" d="m0 0h2l-1 4-13 14-9 11-12 13-9 11-13 14-9 11-10 11-1 2-9 3-2-2 5-3 2 1-1-4 8-8 9-12 5-6h2l2-4 5-5h2l2-4 8-11h2l2-4 9-9 6-3 3-5 4-7 7-7z" fill="#FEE6BD"/>
<path transform="translate(819,1104)" d="m0 0 9 5 10 6 9 5 6 3v2l5 2 16 9 11 7v2h2v2l-3 2h-8l-25-16-25-15-6-3-9-1-1-2 5-2h5z" fill="#FCBC44"/>
<path transform="translate(1574,1917)" d="m0 0 2 2 1 10 1 3-7 9-9 10-9 8-17 11-19 8h-5v-2l5-4 5-2 3-3 9-5 12-9 10-8 5-7h2l2-4 6-7 2-4z" fill="#FEE8C0"/>
<path transform="translate(1530,1552)" d="m0 0 2 1v3l3 2v5l-5-1-21 7-8 3-15 5-17 6-2 1h-11v-2l3-3 50-19z" fill="#FEE6BE"/>
<path transform="translate(932,1409)" d="m0 0 2 3h-2v2l2 1h-2v7l-4 10h-2v8h-2v2h-2v8l-3 6v4l-7 17v3h-3l-1-2h-2l-2 7-3 2v5l-3 3h-2l-1 3-1-2 15-35 13-29z" fill="#FEEBD3"/>
<path transform="translate(882,1523)" d="m0 0 2 3-1 5-2 2v7l-4 6-3 10-1 4-5 1v2l2 1-1 4-3 1-1 7-4 5-1 5-3 7v3l-5 1v5 3h-2l-1 4 1 2-4 6-1 4-6 2 3-9 19-43 17-39z" fill="#FEE6C8"/>
<path transform="translate(1023,296)" d="m0 0 3 3 5 12 5 9 6 5-2 1-7-3h-20l-4 1 1-6 3-1 2-5z" fill="#2F353C"/>
<path transform="translate(944,1181)" d="m0 0h7l45 27v2l-3 2h-6l-16-10-9-6-12-7v-2l-4-2z" fill="#FEBC44"/>
<path transform="translate(1373,1925)" d="m0 0 9 6 10 10 6 7 2 1v2h2v2l5 2 6 4v2l5 2 12 7 10 5 6 1 3 4-7-1-16-6-16-9-14-11-13-13-9-11z" fill="#FEE4B7"/>
<path transform="translate(908,1476)" d="m0 0h1v6l-5 11h-2l-1 7-10 24-5 7-3-1v-9l10-23 7-6v-6l4-2 1-4 1-2h2z" fill="#FEF3DC"/>
<path transform="translate(1370,1593)" d="m0 0h2v7l-5 20-8 21-7 15-2 4-5-1-2-5 9-11 7-14 7-22h2l-1-6z" fill="#FBB842"/>
<path transform="translate(910,851)" d="m0 0h3v2l4 2 5 4 11 7 4 2v2l5 2 12 4 8 4 9 4-1 3-10-2-25-10-2-2v-2l-7-5-5-3-3-2v-2l-4-2-4-4z" fill="#FEE7C0"/>
<path transform="translate(470,1680)" d="m0 0h1l-1 13-12 82-2 11-2 5h-1l1-12 14-97z" fill="#FDD29A"/>
<path transform="translate(1313,576)" d="m0 0 9 1-1 5-3 6-1 9-2 52-1 10h-1z" fill="#FFF2DF"/>
<path transform="translate(882,1531)" d="m0 0 3 1-2 9-5 12-3 5-3 9-7 17-6 10-4 1 2-3 4-12 3-5 1-4 4-4-1-4v-2h2l1-2 2-3 4-12 3-5v-6z" fill="#FFF7E3"/>
<path transform="translate(1057,1345)" d="m0 0 7 1v2l-5 4 2 6 1 32-1 15-3 4-1-14z" fill="#FEEAC5"/>
<path transform="translate(751,1831)" d="m0 0 5 2-2 5-12 13-9 11-4 2v-3l-4 1v-2l3-3h2l2-4 5-5 10-13z" fill="#FEE7BF"/>
<path transform="translate(725,1863)" d="m0 0 1 2h2l-2 5-12 13-9 11h-3l2-3h-5l6-7 9-10 7-9z" fill="#FEE7BF"/>
<path transform="translate(490,1541)" d="m0 0h10l12 2v2l7 1-2 2h-4v4l-5 1-4-5h-6l-3 3h-2v3l-2-1-1-1z" fill="#FEF3DC"/>
<path transform="translate(1429,1645)" d="m0 0 2 1v10l-1 6 1 5-2 8-3 3-1-6h-2v-9l-1-6 2-7z" fill="#FEEAC4"/>
<path transform="translate(800,511)" d="m0 0h9l-5 8v10l1 7v4l9 1v1h-12l-1 42h-1z" fill="#FDD8A5"/>
<path transform="translate(734,659)" d="m0 0h1l1 5 1 20-4-2-11-10-3-4 1-4 3 2v2l8-1 2-3z" fill="#FEECCB"/>
<path transform="translate(1323,579)" d="m0 0 7 1 8 6 5 6 1 5v26h-1l-1-15-2-1-4-14-1-4h-2l-5-5-4-2z" fill="#FEE3BD"/>
<path transform="translate(480,1932)" d="m0 0 5 5 2 5 4 2 7 8 2 5 7 5-1 2-5-1-3-2-3-5-1-3h-2v-2l-4-2v-2l-4-2v-2h-2v-2h-2l-4-5v-3z" fill="#FEE9C2"/>
<path transform="translate(1394,1403)" d="m0 0 5 1v3l4 2 4 6 4 9 3 2-8 2-5-8-7-14z" fill="#FEE5BA"/>
<path transform="translate(727,1266)" d="m0 0v3h-2l-2 4-7 8-12 9-17 9-15 4h-19l-7-2 4-1 4 1h15l17-5 17-9 16-12 5-7z" fill="#FEDFB4"/>
<path transform="translate(934,1012)" d="m0 0 2 2v9l-2 14-3 6-1-4 2-5-1-3-2-1v9l-4 4-3 1 3-9 4-15 4-1z" fill="#FEE9C1"/>
<path transform="translate(882,1523)" d="m0 0 2 3-1 5-2 2v7l-4 6-3 10-1 4-5 2-3 2 3-9z" fill="#FEE5C6"/>
<path transform="translate(924,1104)" d="m0 0 2 1-4 5-2 11-2 4-5-1-4-3 1-4 5-9 6-2z" fill="#FEE7C0"/>
<path transform="translate(1575,1792)" d="m0 0h1l2 8 1-4 2-4 2 5-3 9h-2l2 7 1 9 2 3 3 23v5l-2 1-6-36-3-19z" fill="#FFEFDD"/>
<path transform="translate(1553,1799)" d="m0 0h2l1 4-5 8-2 4h-2l-2 4-2 1-1 6-2 2-2-4-2-1 15-22z" fill="#FEEBD2"/>
<path transform="translate(731,576)" d="m0 0h4v38h-1l-1-14v-12h-2l-5-8-5 2-4-1 4-3z" fill="#FDEDD7"/>
<path transform="translate(1062,1211)" d="m0 0 8 4 1 3-8 13-5 3h-3l1-4 3-5 4-8z" fill="#FEBE47"/>
<path transform="translate(1196,1727)" d="m0 0h10l7 2v6l-2 2-3-1-1 2-9-6-10-3v-1z" fill="#FDD5A3"/>
<path transform="translate(954,1148)" d="m0 0h2v2l5 1v4l-6 10-5 3h-3l2-8h2l2-5z" fill="#FEC047"/>
<path transform="translate(905,1470)" d="m0 0 3 1v3l4-1 1-2-1 9h-3l-1-2h-2l-2 7-3 2v5l-3 3h-2l-1 3-1-2z" fill="#FEE9CF"/>
<path transform="translate(838,1737)" d="m0 0h2l-1 4-13 14-4 4v-4l4-9 8-8z" fill="#FEE4B7"/>
<path transform="translate(1315,597)" d="m0 0h1v27l-1 25-1 10h-1v-41l1-20z" fill="#FFEFDD"/>
<path transform="translate(454,1792)" d="m0 0h1l-1 11-3 22-2 19h-1v-20l4-31z" fill="#FDCE8E"/>
<path transform="translate(850,1596)" d="m0 0 2 3 1 5-3 1-1 4 1 2-4 6-1 4-6 2 3-9z" fill="#FEE5C6"/>
<path transform="translate(1029,1171)" d="m0 0 2 2-3 4-2 5-1 6-9-1 3-8 4-6z" fill="#FDE3BC"/>
<path transform="translate(932,1409)" d="m0 0 2 3h-2v2l2 1h-2v7l-4 10h-2l-1 2h-3l3-9z" fill="#FEE9CE"/>
<path transform="translate(1131,1844)" d="m0 0 4 2 8 7 6 10-1 2-6-5v-2l-4-2-4-3v-5l-3-1z" fill="#FEC246"/>
<path transform="translate(1315,669)" d="m0 0 7 2h2l-1 4-8 7h-3v-8h2z" fill="#FEEFD1"/>
<path transform="translate(504,1964)" d="m0 0h6l19 10 1 3-10-3-15-8z" fill="#FEE1B1"/>
<path transform="translate(887,1060)" d="m0 0h5l-2 10-6-1-6-4v-2z" fill="#FEE4C2"/>
<path transform="translate(1245,511)" d="m0 0h2v19l-2 1-3-11-2-6z" fill="#FDE1C2"/>
<path transform="translate(857,1595)" d="m0 0h2l-3 9-4 8-3 1-1-4 2-4 2-1-1-2 1-5z" fill="#FFF8E4"/>
<path transform="translate(891,1061)" d="m0 0h2l2 7 4 5 3 3-2 1-7-3-5-3 2-1v-8z" fill="#FEE5BE"/>
<path transform="translate(734,659)" d="m0 0h1v9l-2 3-7 1-2-1-1 2-4-5 1-4 3 2v2l8-1 2-3z" fill="#FEEDD7"/>
<path transform="translate(859,1581)" d="m0 0 2 4-2 2-2 6v3l-5 1-1 2 1-8 4-8z" fill="#FEE8CD"/>
<path transform="translate(1178,1904)" d="m0 0 5 5 4 5 1 6-2 1v-4l-6-2-4-6 1-3z" fill="#FEBA46"/>
<path transform="translate(1117,984)" d="m0 0h1l1 32-2 2-2-12v-10z" fill="#FFEFDD"/>
<path transform="translate(705,594)" d="m0 0 2 3-1 33h-2v-34z" fill="#FED89A"/>
<path transform="translate(490,1800)" d="m0 0 3 1 4 2 3 2-1 6h-4l-6-7z" fill="#FEE9C0"/>
<path transform="translate(1116,943)" d="m0 0h3v21h-1l-1-11-4-2-1-4 1-3z" fill="#FEEFD9"/>
<path transform="translate(1151,1868)" d="m0 0 5 2 3 3 3 5 1 5-5-3h-3l-2-5-1-4z" fill="#FEC14A"/>
<path transform="translate(482,1596)" d="m0 0h1l-1 10-2 16-3 3 1-13 2-14z" fill="#FDD198"/>
<path transform="translate(448,1855)" d="m0 0 2 3 2 25-2 4-2-14z" fill="#FDCD8A"/>
<path transform="translate(992,890)" d="m0 0h4v2l24 1v2h9v1h-11l-20-2-10-2z" fill="#FDCF94"/>
<path transform="translate(470,1680)" d="m0 0h1l-1 13-2 10-2 5h-1l1-12 2-14z" fill="#FDD195"/>
<path transform="translate(1278,1608)" d="m0 0 1 2 5 2 3 1 2 6-5-1-9-7v-2z" fill="#FEBD46"/>
<path transform="translate(485,1563)" d="m0 0 2 4-1 12-2 11-2 5h-1l1-11z" fill="#FDCF8F"/>
<path transform="translate(474,1652)" d="m0 0h1l-1 11-2 12-2 5h-1l1-12 2-14z" fill="#FDD094"/>
<path transform="translate(971,884)" d="m0 0 10 2 6 2v3l-9-1-8-2z" fill="#FEE1B3"/>
<path transform="translate(1164,1884)" d="m0 0 7 6 4 7-1 2-7-3-2-5z" fill="#FEC049"/>
<path transform="translate(458,1764)" d="m0 0h1l-1 11-2 11-2 5h-1l1-12 2-13z" fill="#FDD095"/>
<path transform="translate(1079,1200)" d="m0 0 1 3-8 13-4-1 1-5 4-3h3l2-6z" fill="#FEE3B6"/>
<path transform="translate(1368,1513)" d="m0 0 3 3 1 3v8l-2 2-3-5v-8z" fill="#FEBE44"/>
<path transform="translate(758,416)" d="m0 0h6v1l-12 3-8 6-3 5-3 6h-1v-5l1-3h2l2-4 7-6z" fill="#414951"/>
<path transform="translate(907,1122)" d="m0 0 1 2 4 1-3 1-2 5-3 3-3-1 2-5 1-2h2z" fill="#F0AF44"/>
<path transform="translate(928,943)" d="m0 0 9 2v3h-3v2l-5 2z" fill="#FEECD0"/>
<path transform="translate(838,1729)" d="m0 0h9v2l3 1-6 4-2 1v-3l-4-2z" fill="#FED7A5"/>
<path transform="translate(476,1626)" d="m0 0h1l1 8-2 13-2 5h-1l1-12z" fill="#FDCC88"/>
<path transform="translate(992,889)" d="m0 0h8l5 2 15 1-3 2-18-1-3-1v-2z" fill="#FFEBC5"/>
<path transform="translate(928,1029)" d="m0 0h1v10l-4 4-3 1 4-12h2z" fill="#FEE6C7"/>
<path transform="translate(1313,576)" d="m0 0 9 1-1 3-5 3h-3z" fill="#FEF1D9"/>
<path transform="translate(1157,1878)" d="m0 0 7 6 2 4-1 4-4-4-4-6z" fill="#FDB147"/>
<path transform="translate(1021,1284)" d="m0 0 10 1-4 4-5 1-3-3v-2z" fill="#FDB63E"/>
<path transform="translate(941,1714)" d="m0 0 4 2-13 7h-2l1-3 7-5z" fill="#FED271"/>
<path transform="translate(924,865)" d="m0 0 5 2 5 4v2l-5-1-8-4v-2z" fill="#FFEED7"/>
<path transform="translate(1551,1814)" d="m0 0h3l-6 12-4-1 1-4h2l2-4z" fill="#FEEAC4"/>
<path transform="translate(932,1409)" d="m0 0 2 3h-2v2l2 1h-2v7l-6 2 3-9z" fill="#FEE3BF"/>
<path transform="translate(1193,1423)" d="m0 0 3 4 6 14v2h-2l-7-15z" fill="#F8BE5F"/>
<path transform="translate(462,1911)" d="m0 0h2v2l4-1v3l-2 3-6-2v-4z" fill="#FEF5DE"/>
<path transform="translate(1315,669)" d="m0 0 7 3-1 2h-2l-1 2-6 1v-3h2z" fill="#FFEFDD"/>
<path transform="translate(890,1060)" d="m0 0 2 1-1 4-1 5-6-1-2-2h4l2-5z" fill="#FEEAD1"/>
<path transform="translate(1449,1583)" d="m0 0 6 1-1 3-5 2-3-1v-4z" fill="#FEE5B9"/>
<path transform="translate(1575,1932)" d="m0 0 1 3-7 8-1-3 3-6z" fill="#FEECCF"/>
<path transform="translate(1016,1188)" d="m0 0h4l-2 4h-2l-2 4-4 2 2-7h3z" fill="#FABC49"/>
<path transform="translate(454,1792)" d="m0 0h1l-1 11-2 4h-1l1-14z" fill="#FDD29B"/>
<path transform="translate(882,1523)" d="m0 0 2 3-1 5-4 5h-2l3-9z" fill="#FEE0BA"/>
<path transform="translate(1370,1593)" d="m0 0h2v7l-3 4-2-1 2-9z" fill="#FEBC43"/>
<path transform="translate(899,1484)" d="m0 0h1l1 8-3 3h-2l-1 3-1-2z" fill="#FEDFB7"/>
<path transform="translate(471,1924)" d="m0 0 5 3 2 5-3-1-1 2-3-3-1-4z" fill="#FEEAC4"/>
<path transform="translate(727,1266)" d="m0 0v3h-2l-2 4-7 8h-2l2-4 10-10z" fill="#FEDDA4"/>
<path transform="translate(1191,1931)" d="m0 0 3 4v2h4l1 4-3 3-5-10z" fill="#FEC05B"/>
<path transform="translate(1194,1929)" d="m0 0 4 4 1 4h-5l-2-5z" fill="#FEC146"/>
<path transform="translate(1171,1371)" d="m0 0h1v5h2l4 10v2h-2l-5-11-1-5z" fill="#F7B75F"/>
<path transform="translate(702,1890)" d="m0 0 3 1-2 3-2 4-4-1 2-4z" fill="#FDE2C4"/>
<path transform="translate(467,1703)" d="m0 0 1 4-1 8-3 2v-7z" fill="#FDD9AD"/>
<path transform="translate(1294,1621)" d="m0 0 5 1 2 2-1 3-6-2z" fill="#F8B641"/>
<path transform="translate(1530,1552)" d="m0 0 2 1v3l3 2-1 3-5-3v-2l-4-2z" fill="#FDDDB7"/>
<path transform="translate(1504,1389)" d="m0 0 2 2-6 4-4 1v-4z" fill="#FDE0C2"/>
<path transform="translate(1318,596)" d="m0 0h1v15l-2-1v-7l-1-6z" fill="#FEEAC4"/>
<path transform="translate(708,588)" d="m0 0 2 1-1 8-3-1-1-4z" fill="#FDE4C6"/>
<path transform="translate(614,1973)" d="m0 0 3 2-11 4h-4v-2z" fill="#FEE0B0"/>
<path transform="translate(548,1554)" d="m0 0h9l-1 4h-6v-3z" fill="#FEEAC4"/>
<path transform="translate(1533,1373)" d="m0 0 2 4v8l-1 1h-5l3-3z" fill="#FDF9F2"/>
<path transform="translate(987,344)" d="m0 0h3l-2 6-3-1-4 1 4-5z" fill="#3D444C"/>
<path transform="translate(506,1824)" d="m0 0 6 1-3 2-9 3 4-5z" fill="#FEEAC4"/>
<path transform="translate(1178,1904)" d="m0 0 5 5 1 3-5-2-3-1 1-3z" fill="#FEC449"/>
<path transform="translate(697,1892)" d="m0 0 3 1-3 4h3l-1 3h-2l-3-4z" fill="#FEE9C9"/>
<path transform="translate(619,1706)" d="m0 0 1 2h7l-4 4-3 1-1-1z" fill="#FED478"/>
<path transform="translate(712,1280)" d="m0 0h2l-2 4-5 4-4-1z" fill="#FEE1BB"/>
<path transform="translate(967,1139)" d="m0 0h2l-1 5-3 3v-2h-2v-3z" fill="#FEE2B4"/>
</svg>
