<svg width="2952" height="1447" viewBox="0 0 2952 1447" fill="none" xmlns="http://www.w3.org/2000/svg">
<path d="M151.568 106.501C147.244 129.705 163.933 473.21 304.981 761.943C431.591 1020.76 723.919 1175.75 1064.4 1004.37C1429.22 820.684 1744.6 811.671 1999.24 877.504C2250.56 942.735 2418.3 1119.28 2493.79 1230.79C2657.62 1471.78 2897.32 1334.29 2811.43 1021.61C2770.92 876.142 2665.7 832.285 2483.63 811.155C2293.32 789.069 2012.41 812.71 1622.25 731.864C1245.98 653.641 822.156 482.06 583.311 273.861C329.12 52.1073 187.73 -96.0136 151.568 106.501Z" fill="url(#paint0_linear_32_284)"/>
<defs>
<linearGradient id="paint0_linear_32_284" x1="2686.96" y1="377.796" x2="293.385" y2="1209.94" gradientUnits="userSpaceOnUse">
<stop offset="0.276" stop-color="#FCD027"/>
<stop offset="1" stop-color="white"/>
</linearGradient>
</defs>
</svg>
